<svg width="19" height="19" viewBox="0 0 19 19" fill="none" xmlns="http://www.w3.org/2000/svg">
<path d="M9.33301 11C10.828 11 13.0987 11.3792 14.9824 12.1338C15.9237 12.5109 16.7376 12.97 17.3076 13.4961C17.874 14.019 18.167 14.575 18.167 15.167V18.167H0.5V15.167C0.5 14.5748 0.792747 14.0191 1.35938 13.4961C1.92949 12.9699 2.74311 12.5109 3.68457 12.1338C5.56819 11.3792 7.83805 11 9.33301 11ZM9.33301 0.5C10.4381 0.5 11.4979 0.939302 12.2793 1.7207C13.0607 2.5021 13.5 3.56195 13.5 4.66699C13.4999 5.77194 13.0606 6.83196 12.2793 7.61328C11.4979 8.39452 10.438 8.83301 9.33301 8.83301C8.22804 8.83296 7.16807 8.3946 6.38672 7.61328C5.60539 6.83196 5.16708 5.77194 5.16699 4.66699C5.16699 3.56205 5.60548 2.50208 6.38672 1.7207C7.16807 0.939347 8.22801 0.500052 9.33301 0.5ZM9.33301 1.7168C8.55069 1.71685 7.80026 2.02787 7.24707 2.58105C6.694 3.13426 6.38281 3.88473 6.38281 4.66699C6.3829 5.44926 6.69391 6.19977 7.24707 6.75293C7.80025 7.30608 8.55072 7.61616 9.33301 7.61621C10.1153 7.61621 10.8657 7.306 11.4189 6.75293C11.9721 6.19977 12.2831 5.44926 12.2832 4.66699C12.2832 3.88463 11.9721 3.13428 11.4189 2.58105C10.8657 2.02782 10.1154 1.7168 9.33301 1.7168Z" fill="black" stroke="black"/>
</svg>
