<svg width="20" height="20" viewBox="0 0 20 20" fill="none" xmlns="http://www.w3.org/2000/svg">
<path fill-rule="evenodd" clip-rule="evenodd" d="M7.79797 10.1734C7.85313 10.1181 7.91865 10.0742 7.99078 10.0443C8.06292 10.0144 8.14025 9.99896 8.21835 9.99896C8.29644 9.99896 8.37378 10.0144 8.44591 10.0443C8.51805 10.0742 8.58357 10.1181 8.63872 10.1734L9.9996 11.5355L11.3605 10.1734C11.472 10.0619 11.6232 9.99927 11.7808 9.99927C11.9385 9.99927 12.0897 10.0619 12.2012 10.1734C12.3127 10.2849 12.3753 10.4361 12.3753 10.5938C12.3753 10.7514 12.3127 10.9027 12.2012 11.0141L10.8392 12.375L12.2012 13.7359C12.3127 13.8474 12.3753 13.9986 12.3753 14.1563C12.3753 14.3139 12.3127 14.4652 12.2012 14.5766C12.0897 14.6881 11.9385 14.7508 11.7808 14.7508C11.6232 14.7508 11.472 14.6881 11.3605 14.5766L9.9996 13.2146L8.63872 14.5766C8.52723 14.6881 8.37602 14.7508 8.21835 14.7508C8.06068 14.7508 7.90946 14.6881 7.79797 14.5766C7.68648 14.4652 7.62385 14.3139 7.62385 14.1563C7.62385 13.9986 7.68648 13.8474 7.79797 13.7359L9.16003 12.375L7.79797 11.0141C7.74268 10.959 7.69881 10.8935 7.66887 10.8213C7.63894 10.7492 7.62354 10.6719 7.62354 10.5938C7.62354 10.5157 7.63894 10.4383 7.66887 10.3662C7.69881 10.2941 7.74268 10.2286 7.79797 10.1734V10.1734Z" fill="#9F9F9F"/>
<path d="M10 1.6875C10.7874 1.6875 11.5425 2.00028 12.0992 2.55703C12.656 3.11378 12.9688 3.86889 12.9688 4.65625V5.25H7.03125V4.65625C7.03125 3.86889 7.34403 3.11378 7.90078 2.55703C8.45753 2.00028 9.21264 1.6875 10 1.6875V1.6875ZM14.1562 5.25V4.65625C14.1562 3.55394 13.7184 2.49679 12.9389 1.71734C12.1595 0.937889 11.1023 0.5 10 0.5C8.89769 0.5 7.84054 0.937889 7.06109 1.71734C6.28164 2.49679 5.84375 3.55394 5.84375 4.65625V5.25H1.6875V17.125C1.6875 17.7549 1.93772 18.359 2.38312 18.8044C2.82852 19.2498 3.43261 19.5 4.0625 19.5H15.9375C16.5674 19.5 17.1715 19.2498 17.6169 18.8044C18.0623 18.359 18.3125 17.7549 18.3125 17.125V5.25H14.1562ZM2.875 6.4375H17.125V17.125C17.125 17.4399 16.9999 17.742 16.7772 17.9647C16.5545 18.1874 16.2524 18.3125 15.9375 18.3125H4.0625C3.74756 18.3125 3.44551 18.1874 3.22281 17.9647C3.00011 17.742 2.875 17.4399 2.875 17.125V6.4375Z" fill="#9F9F9F"/>
</svg>
